<svg xmlns="http://www.w3.org/2000/svg" xmlns:xlink="http://www.w3.org/1999/xlink" contentStyleType="text/css" data-diagram-type="CLASS" height="808px" preserveAspectRatio="none" style="width:762px;height:808px;background:#FFFFFF;" version="1.1" viewBox="0 0 762 808" width="762px" zoomAndPan="magnify"><?plantuml 1.2026.6?><defs/><g><!--cluster com--><g class="cluster" data-qualified-name="com" data-source-line="3" id="ent0003"><path d="M8.5,6 L39.4688,6 A3.75,3.75 0 0 1 41.9688,8.5 L48.9688,28.4883 L744.5,28.4883 A2.5,2.5 0 0 1 747,30.9883 L747,791.34 A2.5,2.5 0 0 1 744.5,793.84 L8.5,793.84 A2.5,2.5 0 0 1 6,791.34 L6,8.5 A2.5,2.5 0 0 1 8.5,6" fill="none" style="stroke:#000000;stroke-width:1.5;"/><line style="stroke:#000000;stroke-width:1.5;" x1="6" x2="48.9688" y1="28.4883" y2="28.4883"/><text fill="#000000" font-family="sans-serif" font-size="14" font-weight="700" lengthAdjust="spacing" textLength="29.9688" x="10" y="21.5352">com</text></g><!--cluster example--><g class="cluster" data-qualified-name="com.example" data-source-line="3" id="ent0004"><path d="M32.5,49 L93.8135,49 A3.75,3.75 0 0 1 96.3135,51.5 L103.3135,71.4883 L720.5,71.4883 A2.5,2.5 0 0 1 723,73.9883 L723,767.34 A2.5,2.5 0 0 1 720.5,769.84 L32.5,769.84 A2.5,2.5 0 0 1 30,767.34 L30,51.5 A2.5,2.5 0 0 1 32.5,49" fill="none" style="stroke:#000000;stroke-width:1.5;"/><line style="stroke:#000000;stroke-width:1.5;" x1="30" x2="103.3135" y1="71.4883" y2="71.4883"/><text fill="#000000" font-family="sans-serif" font-size="14" font-weight="700" lengthAdjust="spacing" textLength="60.3135" x="34" y="64.5352">example</text></g><!--cluster order--><g class="cluster" data-qualified-name="com.example.order" data-source-line="2" id="ent0001"><path d="M56.5,92 L96.6494,92 A3.75,3.75 0 0 1 99.1494,94.5 L106.1494,114.4883 L696.5,114.4883 A2.5,2.5 0 0 1 699,116.9883 L699,743.34 A2.5,2.5 0 0 1 696.5,745.84 L56.5,745.84 A2.5,2.5 0 0 1 54,743.34 L54,94.5 A2.5,2.5 0 0 1 56.5,92" fill="none" style="stroke:#000000;stroke-width:1.5;"/><line style="stroke:#000000;stroke-width:1.5;" x1="54" x2="106.1494" y1="114.4883" y2="114.4883"/><text fill="#000000" font-family="sans-serif" font-size="14" font-weight="700" lengthAdjust="spacing" textLength="39.1494" x="58" y="107.5352">order</text></g><!--class T_com_example_order_Order--><g class="entity" data-qualified-name="com.example.order.T_com_example_order_Order" data-source-line="3" id="ent0002"><rect fill="#F1F1F1" height="179.9063" rx="2.5" ry="2.5" style="stroke:#181818;stroke-width:0.5;" width="259.4883" x="117.26" y="441.93"/><ellipse cx="223.282" cy="457.93" fill="#ADD1B2" rx="11" ry="11" style="stroke:#181818;stroke-width:1;"/><path d="M225.7551,464.0731 Q225.1741,464.3719 224.5349,464.5213 Q223.8957,464.6707 223.1902,464.6707 Q220.6833,464.6707 219.3635,463.0189 Q218.0437,461.367 218.0437,458.2459 Q218.0437,455.1165 219.3635,453.4647 Q220.6833,451.8128 223.1902,451.8128 Q223.8957,451.8128 224.5432,451.9622 Q225.1907,452.1116 225.7551,452.4105 L225.7551,455.1331 Q225.1243,454.5521 224.5308,454.2823 Q223.9372,454.0125 223.3064,454.0125 Q221.9617,454.0125 221.2768,455.0792 Q220.592,456.1458 220.592,458.2459 Q220.592,460.3377 221.2768,461.4044 Q221.9617,462.471 223.3064,462.471 Q223.9372,462.471 224.5308,462.2012 Q225.1243,461.9315 225.7551,461.3504 Z " fill="#000000"/><text fill="#000000" font-family="sans-serif" font-size="14" lengthAdjust="spacing" textLength="38.9443" x="243.782" y="463.221">Order</text><line style="stroke:#181818;stroke-width:0.5;" x1="118.26" x2="375.7483" y1="473.93" y2="473.93"/><g data-visibility-modifier="PRIVATE_FIELD"><rect fill="none" height="6" style="stroke:#C82930;stroke-width:1;" width="6" x="125.26" y="484.6741"/></g><text fill="#000000" font-family="sans-serif" font-size="14" lengthAdjust="spacing" textLength="61.6875" x="137.26" y="491.4652">id: String</text><g data-visibility-modifier="PRIVATE_FIELD"><rect fill="none" height="6" style="stroke:#C82930;stroke-width:1;" width="6" x="125.26" y="501.1624"/></g><text fill="#000000" font-family="sans-serif" font-size="14" lengthAdjust="spacing" textLength="114.8916" x="137.26" y="507.9534">total: BigDecimal</text><g data-visibility-modifier="PRIVATE_FIELD"><rect fill="none" height="6" style="stroke:#C82930;stroke-width:1;" width="6" x="125.26" y="517.6507"/></g><text fill="#000000" font-family="sans-serif" font-size="14" lengthAdjust="spacing" textLength="130.5391" x="137.26" y="524.4417">status: OrderStatus</text><line style="stroke:#181818;stroke-width:0.5;" x1="118.26" x2="375.7483" y1="531.3948" y2="531.3948"/><g data-visibility-modifier="PUBLIC_METHOD"><ellipse cx="128.26" cy="545.139" fill="#84BE84" rx="3" ry="3" style="stroke:#038048;stroke-width:1;"/></g><text fill="#000000" font-family="sans-serif" font-size="14" lengthAdjust="spacing" textLength="233.4883" x="137.26" y="548.93">Order(id: String, total: BigDecimal)</text><g data-visibility-modifier="PUBLIC_METHOD"><ellipse cx="128.26" cy="561.6273" fill="#84BE84" rx="3" ry="3" style="stroke:#038048;stroke-width:1;"/></g><text fill="#000000" font-family="sans-serif" font-size="14" lengthAdjust="spacing" textLength="92.5449" x="137.26" y="565.4183">getId(): String</text><g data-visibility-modifier="PUBLIC_METHOD"><ellipse cx="128.26" cy="578.1155" fill="#84BE84" rx="3" ry="3" style="stroke:#038048;stroke-width:1;"/></g><text fill="#000000" font-family="sans-serif" font-size="14" lengthAdjust="spacing" textLength="149.3789" x="137.26" y="581.9066">getTotal(): BigDecimal</text><g data-visibility-modifier="PUBLIC_METHOD"><ellipse cx="128.26" cy="594.6038" fill="#84BE84" rx="3" ry="3" style="stroke:#038048;stroke-width:1;"/></g><text fill="#000000" font-family="sans-serif" font-size="14" lengthAdjust="spacing" textLength="161.8135" x="137.26" y="598.3948">getStatus(): OrderStatus</text><g data-visibility-modifier="PUBLIC_METHOD"><ellipse cx="128.26" cy="611.0921" fill="#84BE84" rx="3" ry="3" style="stroke:#038048;stroke-width:1;"/></g><text fill="#000000" font-family="sans-serif" font-size="14" lengthAdjust="spacing" textLength="109.71" x="137.26" y="614.8831">markPaid(): void</text></g><!--class T_com_example_order_OrderService--><g class="entity" data-qualified-name="com.example.order.T_com_example_order_OrderService" data-source-line="13" id="ent0005"><rect fill="#F1F1F1" height="113.9531" rx="2.5" ry="2.5" style="stroke:#181818;stroke-width:0.5;" width="485.9766" x="133.01" y="127"/><ellipse cx="328.6101" cy="143" fill="#ADD1B2" rx="11" ry="11" style="stroke:#181818;stroke-width:1;"/><path d="M331.0832,149.1431 Q330.5022,149.4419 329.863,149.5913 Q329.2239,149.7407 328.5183,149.7407 Q326.0115,149.7407 324.6916,148.0889 Q323.3718,146.437 323.3718,143.3159 Q323.3718,140.1865 324.6916,138.5347 Q326.0115,136.8828 328.5183,136.8828 Q329.2239,136.8828 329.8713,137.0322 Q330.5188,137.1816 331.0832,137.4805 L331.0832,140.2031 Q330.4524,139.6221 329.8589,139.3523 Q329.2654,139.0825 328.6345,139.0825 Q327.2898,139.0825 326.605,140.1492 Q325.9202,141.2158 325.9202,143.3159 Q325.9202,145.4077 326.605,146.4744 Q327.2898,147.541 328.6345,147.541 Q329.2654,147.541 329.8589,147.2712 Q330.4524,147.0015 331.0832,146.4204 Z " fill="#000000"/><text fill="#000000" font-family="sans-serif" font-size="14" lengthAdjust="spacing" textLength="86.2764" x="349.1101" y="148.291">OrderService</text><line style="stroke:#181818;stroke-width:0.5;" x1="134.01" x2="617.9866" y1="159" y2="159"/><g data-visibility-modifier="PRIVATE_FIELD"><rect fill="none" height="6" style="stroke:#C82930;stroke-width:1;" width="6" x="141.01" y="169.7441"/></g><text fill="#000000" font-family="sans-serif" font-size="14" lengthAdjust="spacing" textLength="117.209" x="153.01" y="176.5352">store: OrderStore</text><g data-visibility-modifier="PRIVATE_FIELD"><rect fill="none" height="6" style="stroke:#C82930;stroke-width:1;" width="6" x="141.01" y="186.2324"/></g><text fill="#000000" font-family="sans-serif" font-size="14" lengthAdjust="spacing" textLength="238.5264" x="153.01" y="193.0234">paymentGateway: PaymentGateway</text><line style="stroke:#181818;stroke-width:0.5;" x1="134.01" x2="617.9866" y1="199.9766" y2="199.9766"/><g data-visibility-modifier="PUBLIC_METHOD"><ellipse cx="144.01" cy="213.7207" fill="#84BE84" rx="3" ry="3" style="stroke:#038048;stroke-width:1;"/></g><text fill="#000000" font-family="sans-serif" font-size="14" lengthAdjust="spacing" textLength="459.9766" x="153.01" y="217.5117">OrderService(store: OrderStore, paymentGateway: PaymentGateway)</text><g data-visibility-modifier="PUBLIC_METHOD"><ellipse cx="144.01" cy="230.209" fill="#84BE84" rx="3" ry="3" style="stroke:#038048;stroke-width:1;"/></g><text fill="#000000" font-family="sans-serif" font-size="14" lengthAdjust="spacing" textLength="187.7148" x="153.01" y="234">place(order: Order): Receipt</text></g><!--class T_com_example_order_OrderStatus--><g class="entity" data-qualified-name="com.example.order.T_com_example_order_OrderStatus" data-source-line="19" id="ent0006"><rect fill="#F1F1F1" height="48" rx="2.5" ry="2.5" style="stroke:#181818;stroke-width:0.5;" width="112.5137" x="190.74" y="681.84"/><ellipse cx="205.74" cy="697.84" fill="#EB937F" rx="11" ry="11" style="stroke:#181818;stroke-width:1;"/><path d="M209.3543,704.34 L201.6345,704.34 L201.6345,691.9469 L209.3543,691.9469 L209.3543,694.1051 L204.0833,694.1051 L204.0833,696.778 L208.8562,696.778 L208.8562,698.9362 L204.0833,698.9362 L204.0833,702.1818 L209.3543,702.1818 Z " fill="#000000"/><text fill="#000000" font-family="sans-serif" font-size="14" lengthAdjust="spacing" textLength="80.5137" x="219.74" y="703.131">OrderStatus</text><line style="stroke:#181818;stroke-width:0.5;" x1="191.74" x2="302.2537" y1="713.84" y2="713.84"/><line style="stroke:#181818;stroke-width:0.5;" x1="191.74" x2="302.2537" y1="721.84" y2="721.84"/></g><!--class T_com_example_order_OrderStore--><g class="entity" data-qualified-name="com.example.order.T_com_example_order_OrderStore" data-source-line="21" id="ent0007"><rect fill="#F1F1F1" height="80.9766" rx="2.5" ry="2.5" style="stroke:#181818;stroke-width:0.5;" width="279.7979" x="107.1" y="300.96"/><ellipse cx="205.8246" cy="316.96" fill="#B4A7E5" rx="11" ry="11" style="stroke:#181818;stroke-width:1;"/><path d="M202.2523,313.2251 L202.2523,311.0669 L209.6317,311.0669 L209.6317,313.2251 L207.1664,313.2251 L207.1664,321.3018 L209.6317,321.3018 L209.6317,323.46 L202.2523,323.46 L202.2523,321.3018 L204.7177,321.3018 L204.7177,313.2251 Z " fill="#000000"/><text fill="#000000" font-family="sans-serif" font-size="14" font-style="italic" lengthAdjust="spacing" textLength="73.8486" x="226.3246" y="322.251">OrderStore</text><line style="stroke:#181818;stroke-width:0.5;" x1="108.1" x2="385.8979" y1="332.96" y2="332.96"/><line style="stroke:#181818;stroke-width:0.5;" x1="108.1" x2="385.8979" y1="340.96" y2="340.96"/><g data-visibility-modifier="PUBLIC_METHOD"><ellipse cx="118.1" cy="354.7041" fill="#84BE84" rx="3" ry="3" style="stroke:#038048;stroke-width:1;"/></g><text fill="#000000" font-family="sans-serif" font-size="14" lengthAdjust="spacing" textLength="161.0547" x="127.1" y="358.4952">save(order: Order): void</text><g data-visibility-modifier="PUBLIC_METHOD"><ellipse cx="118.1" cy="371.1924" fill="#84BE84" rx="3" ry="3" style="stroke:#038048;stroke-width:1;"/></g><text fill="#000000" font-family="sans-serif" font-size="14" lengthAdjust="spacing" textLength="253.7979" x="127.1" y="374.9834">findById(id: String): Optional&lt;Order&gt;</text></g><!--class T_com_example_order_PaymentGateway--><g class="entity" data-qualified-name="com.example.order.T_com_example_order_PaymentGateway" data-source-line="25" id="ent0008"><rect fill="#F1F1F1" height="64.4883" rx="2.5" ry="2.5" style="stroke:#181818;stroke-width:0.5;" width="224.0029" x="422" y="309.2"/><ellipse cx="472.603" cy="325.2" fill="#B4A7E5" rx="11" ry="11" style="stroke:#181818;stroke-width:1;"/><path d="M469.0308,321.4651 L469.0308,319.3069 L476.4102,319.3069 L476.4102,321.4651 L473.9448,321.4651 L473.9448,329.5418 L476.4102,329.5418 L476.4102,331.7 L469.0308,331.7 L469.0308,329.5418 L471.4961,329.5418 L471.4961,321.4651 Z " fill="#000000"/><text fill="#000000" font-family="sans-serif" font-size="14" font-style="italic" lengthAdjust="spacing" textLength="114.2969" x="493.103" y="330.491">PaymentGateway</text><line style="stroke:#181818;stroke-width:0.5;" x1="423" x2="645.0029" y1="341.2" y2="341.2"/><line style="stroke:#181818;stroke-width:0.5;" x1="423" x2="645.0029" y1="349.2" y2="349.2"/><g data-visibility-modifier="PUBLIC_METHOD"><ellipse cx="433" cy="362.9441" fill="#84BE84" rx="3" ry="3" style="stroke:#038048;stroke-width:1;"/></g><text fill="#000000" font-family="sans-serif" font-size="14" lengthAdjust="spacing" textLength="198.0029" x="442" y="366.7352">charge(order: Order): Receipt</text></g><!--class T_com_example_order_Receipt--><g class="entity" data-qualified-name="com.example.order.T_com_example_order_Receipt" data-source-line="28" id="ent0009"><rect fill="#F1F1F1" height="89.5977" rx="2.5" ry="2.5" style="stroke:#181818;stroke-width:0.5;" width="162.0557" x="486.97" y="487.09"/><ellipse cx="538.8889" cy="507.4005" fill="#ADD1B2" rx="11" ry="11" style="stroke:#181818;stroke-width:1;"/><path d="M541.3621,513.5436 Q540.781,513.8424 540.1419,513.9919 Q539.5027,514.1413 538.7971,514.1413 Q536.2903,514.1413 534.9705,512.4894 Q533.6507,510.8376 533.6507,507.7165 Q533.6507,504.5871 534.9705,502.9352 Q536.2903,501.2834 538.7971,501.2834 Q539.5027,501.2834 540.1502,501.4328 Q540.7976,501.5822 541.3621,501.881 L541.3621,504.6037 Q540.7312,504.0226 540.1377,503.7528 Q539.5442,503.4831 538.9134,503.4831 Q537.5686,503.4831 536.8838,504.5497 Q536.199,505.6164 536.199,507.7165 Q536.199,509.8083 536.8838,510.8749 Q537.5686,511.9416 538.9134,511.9416 Q539.5442,511.9416 540.1377,511.6718 Q540.7312,511.402 541.3621,510.821 Z " fill="#000000"/><text fill="#000000" font-family="sans-serif" font-size="12" font-style="italic" lengthAdjust="spacing" textLength="50.1504" x="559.1726" y="503.6916">&#171;record&#187;</text><text fill="#000000" font-family="sans-serif" font-size="14" lengthAdjust="spacing" textLength="49.7178" x="559.3889" y="519.758">Receipt</text><line style="stroke:#181818;stroke-width:0.5;" x1="487.97" x2="648.0257" y1="527.7111" y2="527.7111"/><g data-visibility-modifier="PRIVATE_FIELD"><rect fill="none" height="6" style="stroke:#C82930;stroke-width:1;" width="6" x="494.97" y="538.4552"/></g><text fill="#000000" font-family="sans-serif" font-size="14" lengthAdjust="spacing" textLength="120.3262" x="506.97" y="545.2463">paymentId: String</text><g data-visibility-modifier="PRIVATE_FIELD"><rect fill="none" height="6" style="stroke:#C82930;stroke-width:1;" width="6" x="494.97" y="554.9435"/></g><text fill="#000000" font-family="sans-serif" font-size="14" lengthAdjust="spacing" textLength="136.0557" x="506.97" y="561.7345">amount: BigDecimal</text><line style="stroke:#181818;stroke-width:0.5;" x1="487.97" x2="648.0257" y1="568.6877" y2="568.6877"/></g><!--link T_com_example_order_Order to T_com_example_order_OrderStatus--><g class="link" data-entity-1="ent0002" data-entity-2="ent0006" data-link-type="dependency" data-source-line="34" id="lnk10"><path codeLine="34" d="M233.88,622.14 C234,644.22 234.5069,661.0686 236.9269,676.7386" fill="none" id="T_com_example_order_Order-to-T_com_example_order_OrderStatus" style="stroke:#181818;stroke-width:1;"/><polygon fill="#181818" points="237.69,681.68,240.2695,672.1749,236.9269,676.7386,232.3632,673.3959,237.69,681.68" style="stroke:#181818;stroke-width:1;stroke-linejoin:miter;stroke-miterlimit:10;"/><text fill="#000000" font-family="sans-serif" font-size="13" lengthAdjust="spacing" textLength="8.2202" x="226.3083" y="671.1753">1</text></g><!--link T_com_example_order_Order to T_com_example_order_OrderStatus--><g class="link" data-entity-1="ent0002" data-entity-2="ent0006" data-link-type="dependency" data-source-line="35" id="lnk11"><path codeLine="35" d="M260.12,622.14 C260,644.22 259.4931,661.0686 257.0731,676.7386" fill="none" id="T_com_example_order_Order-to-T_com_example_order_OrderStatus-1" style="stroke:#181818;stroke-width:1;stroke-dasharray:7,7;"/><polygon fill="#181818" points="256.31,681.68,261.6368,673.3959,257.0731,676.7386,253.7305,672.1749,256.31,681.68" style="stroke:#181818;stroke-width:1;stroke-linejoin:miter;stroke-miterlimit:10;"/><text fill="#000000" font-family="sans-serif" font-size="13" lengthAdjust="spacing" textLength="8.2202" x="249.6997" y="671.1753">1</text></g><!--link T_com_example_order_OrderService to T_com_example_order_OrderStore--><g class="link" data-entity-1="ent0005" data-entity-2="ent0007" data-link-type="dependency" data-source-line="36" id="lnk12"><path codeLine="36" d="M316.76,241.11 C299.59,260.76 284.944,278.408 271.504,296.478" fill="none" id="T_com_example_order_OrderService-to-T_com_example_order_OrderStore" style="stroke:#181818;stroke-width:1;"/><polygon fill="#181818" points="268.52,300.49,277.1007,295.6557,271.504,296.478,270.6816,290.8813,268.52,300.49" style="stroke:#181818;stroke-width:1;stroke-linejoin:miter;stroke-miterlimit:10;"/><text fill="#000000" font-family="sans-serif" font-size="13" lengthAdjust="spacing" textLength="8.2202" x="263.33" y="290.3601">1</text></g><!--link T_com_example_order_OrderService to T_com_example_order_OrderStore--><g class="link" data-entity-1="ent0005" data-entity-2="ent0007" data-link-type="dependency" data-source-line="39" id="lnk15"><path codeLine="39" d="M342.09,241.11 C326.64,260.76 311.7048,278.7308 295.1748,296.8008" fill="none" id="T_com_example_order_OrderService-to-T_com_example_order_OrderStore-1" style="stroke:#181818;stroke-width:1;stroke-dasharray:7,7;"/><polygon fill="#181818" points="291.8,300.49,300.8261,296.5492,295.1748,296.8008,294.9233,291.1495,291.8,300.49" style="stroke:#181818;stroke-width:1;stroke-linejoin:miter;stroke-miterlimit:10;"/><text fill="#000000" font-family="sans-serif" font-size="13" lengthAdjust="spacing" textLength="8.2202" x="290.3202" y="290.3601">1</text></g><!--link T_com_example_order_OrderService to T_com_example_order_PaymentGateway--><g class="link" data-entity-1="ent0005" data-entity-2="ent0008" data-link-type="dependency" data-source-line="37" id="lnk13"><path codeLine="37" d="M420.38,241.11 C442.54,263.89 465.304,286.0582 487.304,305.5082" fill="none" id="T_com_example_order_OrderService-to-T_com_example_order_PaymentGateway" style="stroke:#181818;stroke-width:1;"/><polygon fill="#181818" points="491.05,308.82,486.9567,299.8621,487.304,305.5082,481.6579,305.8556,491.05,308.82" style="stroke:#181818;stroke-width:1;stroke-linejoin:miter;stroke-miterlimit:10;"/><text fill="#000000" font-family="sans-serif" font-size="13" lengthAdjust="spacing" textLength="8.2202" x="473.8281" y="298.5195">1</text></g><!--link T_com_example_order_OrderService to T_com_example_order_PaymentGateway--><g class="link" data-entity-1="ent0005" data-entity-2="ent0008" data-link-type="dependency" data-source-line="40" id="lnk16"><path codeLine="40" d="M445.71,241.11 C469.86,263.89 491.7925,285.6559 509.3225,305.1059" fill="none" id="T_com_example_order_OrderService-to-T_com_example_order_PaymentGateway-1" style="stroke:#181818;stroke-width:1;stroke-dasharray:7,7;"/><polygon fill="#181818" points="512.67,308.82,509.6158,299.4567,509.3225,305.1059,503.6733,304.8126,512.67,308.82" style="stroke:#181818;stroke-width:1;stroke-linejoin:miter;stroke-miterlimit:10;"/><text fill="#000000" font-family="sans-serif" font-size="13" lengthAdjust="spacing" textLength="8.2202" x="499.7045" y="298.5195">1</text></g><!--link T_com_example_order_OrderService to T_com_example_order_Order--><g class="link" data-entity-1="ent0005" data-entity-2="ent0002" data-link-type="dependency" data-source-line="38" id="lnk14"><path codeLine="38" d="M155.42,241.37 C129.67,256.7 106.69,276.18 90,300.96 C58.68,347.46 84.4803,395.4493 125.9003,437.9493" fill="none" id="T_com_example_order_OrderService-to-T_com_example_order_Order" style="stroke:#181818;stroke-width:1;stroke-dasharray:7,7;"/><polygon fill="#181818" points="129.39,441.53,125.973,432.2929,125.9003,437.9493,120.2439,437.8765,129.39,441.53" style="stroke:#181818;stroke-width:1;stroke-linejoin:miter;stroke-miterlimit:10;"/><text fill="#000000" font-family="sans-serif" font-size="13" lengthAdjust="spacing" textLength="8.2202" x="111.7076" y="431.3131">1</text></g><!--link T_com_example_order_OrderService to T_com_example_order_Receipt--><g class="link" data-entity-1="ent0005" data-entity-2="ent0009" data-link-type="dependency" data-source-line="41" id="lnk17"><path codeLine="41" d="M598.45,241.35 C624.24,256.67 647.26,276.17 664,300.96 C703.95,360.11 655.7846,434.7429 614.1746,483.0129" fill="none" id="T_com_example_order_OrderService-to-T_com_example_order_Receipt" style="stroke:#181818;stroke-width:1;stroke-dasharray:7,7;"/><polygon fill="#181818" points="610.91,486.8,619.816,482.5948,614.1746,483.0129,613.7566,477.3715,610.91,486.8" style="stroke:#181818;stroke-width:1;stroke-linejoin:miter;stroke-miterlimit:10;"/><text fill="#000000" font-family="sans-serif" font-size="13" lengthAdjust="spacing" textLength="8.2202" x="608.8853" y="476.3395">1</text></g><!--link T_com_example_order_OrderStore to T_com_example_order_Order--><g class="link" data-entity-1="ent0007" data-entity-2="ent0002" data-link-type="dependency" data-source-line="42" id="lnk18"><path codeLine="42" d="M236.04,382.41 C234.47,399.8 233.7163,415.9401 233.8563,436.7401" fill="none" id="T_com_example_order_OrderStore-to-T_com_example_order_Order" style="stroke:#181818;stroke-width:1;stroke-dasharray:7,7;"/><polygon fill="#181818" points="233.89,441.74,237.8293,432.7133,233.8563,436.7401,229.8295,432.7671,233.89,441.74" style="stroke:#181818;stroke-width:1;stroke-linejoin:miter;stroke-miterlimit:10;"/><text fill="#000000" font-family="sans-serif" font-size="13" lengthAdjust="spacing" textLength="24.667" x="207.8379" y="431.2351">0..1</text></g><!--link T_com_example_order_OrderStore to T_com_example_order_Order--><g class="link" data-entity-1="ent0007" data-entity-2="ent0002" data-link-type="dependency" data-source-line="43" id="lnk19"><path codeLine="43" d="M257.96,382.41 C259.53,399.8 260.2837,415.9401 260.1437,436.7401" fill="none" id="T_com_example_order_OrderStore-to-T_com_example_order_Order-1" style="stroke:#181818;stroke-width:1;stroke-dasharray:7,7;"/><polygon fill="#181818" points="260.11,441.74,264.1705,432.7671,260.1437,436.7401,256.1707,432.7133,260.11,441.74" style="stroke:#181818;stroke-width:1;stroke-linejoin:miter;stroke-miterlimit:10;"/><text fill="#000000" font-family="sans-serif" font-size="13" lengthAdjust="spacing" textLength="8.2202" x="252.8732" y="431.2351">1</text></g><!--link T_com_example_order_PaymentGateway to T_com_example_order_Order--><g class="link" data-entity-1="ent0008" data-entity-2="ent0002" data-link-type="dependency" data-source-line="44" id="lnk20"><path codeLine="44" d="M485.96,373.99 C456.04,393.63 420.1697,417.1859 381.4197,442.6259" fill="none" id="T_com_example_order_PaymentGateway-to-T_com_example_order_Order" style="stroke:#181818;stroke-width:1;stroke-dasharray:7,7;"/><polygon fill="#181818" points="377.24,445.37,386.9588,443.7745,381.4197,442.6259,382.5683,437.0869,377.24,445.37" style="stroke:#181818;stroke-width:1;stroke-linejoin:miter;stroke-miterlimit:10;"/><text fill="#000000" font-family="sans-serif" font-size="13" lengthAdjust="spacing" textLength="8.2202" x="384.587" y="437.8055">1</text></g><!--link T_com_example_order_PaymentGateway to T_com_example_order_Receipt--><g class="link" data-entity-1="ent0008" data-entity-2="ent0009" data-link-type="dependency" data-source-line="45" id="lnk21"><path codeLine="45" d="M539.69,373.99 C545.27,404.89 552.9328,447.3493 559.1728,481.9593" fill="none" id="T_com_example_order_PaymentGateway-to-T_com_example_order_Receipt" style="stroke:#181818;stroke-width:1;stroke-dasharray:7,7;"/><polygon fill="#181818" points="560.06,486.88,562.3996,477.3131,559.1728,481.9593,554.5266,478.7325,560.06,486.88" style="stroke:#181818;stroke-width:1;stroke-linejoin:miter;stroke-miterlimit:10;"/><text fill="#000000" font-family="sans-serif" font-size="13" lengthAdjust="spacing" textLength="8.2202" x="550.2489" y="476.4317">1</text></g><?plantuml-src lLF1Re904Btx5HDE6YjfhyHmC4qQJpNLEvai8zt80bbMMzFuxrsMHGf4C6fwWfrvysRcpKo6R8SHWSDIuT8tYYmcDvKXIGT-HW0inZm7vxsqO0wRG2C3YmmCCZ1U0mUOyT23jP8yYSgtIXN67Ynuz4gC2unBSwvGxNCFJEpQF8nZQWpZckK9EWoJ4XcHMeRZIIDTOTmK-CBUobduoao5ivDOeDoja1l6Gyf3RJsr55YJF716_K9OKAL7hb99vtJwlpHdU1IKg3TKz8L73rQDznyfBDsum_C4_HnMfIn67Mtgiz6wlmzYn3DbMwHaBweEZI033HgCwQ-8veaYkTL9pXIwk2463R42JNCyTEgp-cllbYVXugZdN6z4CRnCyJJ1U6u2_6ubJIakLjE4LHMnJvJHW6PsBQpnOWBhX_bS4jCctw_smWvlsJeN5Ea-KQtTFOrE8_svV7kpcG_EYpCqiruErxsRerhzAyef3-4kfix93B8DjlWGagkRwsDwR7FrxWxSf25vTjsRHQfPRg1edUC_q5J2_080?></g></svg>