<svg xmlns="http://www.w3.org/2000/svg" xmlns:xlink="http://www.w3.org/1999/xlink" contentStyleType="text/css" data-diagram-type="CLASS" height="618px" preserveAspectRatio="none" style="width:459px;height:618px;background:#FFFFFF;" version="1.1" viewBox="0 0 459 618" width="459px" zoomAndPan="magnify"><?plantuml 1.2026.6?><defs/><g><!--cluster com--><g class="cluster" data-qualified-name="com" data-source-line="3" id="ent0003"><path d="M8.5,6 L39.4688,6 A3.75,3.75 0 0 1 41.9688,8.5 L48.9688,28.4883 L441.5,28.4883 A2.5,2.5 0 0 1 444,30.9883 L444,600.89 A2.5,2.5 0 0 1 441.5,603.39 L8.5,603.39 A2.5,2.5 0 0 1 6,600.89 L6,8.5 A2.5,2.5 0 0 1 8.5,6" fill="none" style="stroke:#000000;stroke-width:1.5;"/><line style="stroke:#000000;stroke-width:1.5;" x1="6" x2="48.9688" y1="28.4883" y2="28.4883"/><text fill="#000000" font-family="sans-serif" font-size="14" font-weight="700" lengthAdjust="spacing" textLength="29.9688" x="10" y="21.5352">com</text></g><!--cluster example--><g class="cluster" data-qualified-name="com.example" data-source-line="3" id="ent0004"><path d="M32.5,49 L93.8135,49 A3.75,3.75 0 0 1 96.3135,51.5 L103.3135,71.4883 L417.5,71.4883 A2.5,2.5 0 0 1 420,73.9883 L420,576.89 A2.5,2.5 0 0 1 417.5,579.39 L32.5,579.39 A2.5,2.5 0 0 1 30,576.89 L30,51.5 A2.5,2.5 0 0 1 32.5,49" fill="none" style="stroke:#000000;stroke-width:1.5;"/><line style="stroke:#000000;stroke-width:1.5;" x1="30" x2="103.3135" y1="71.4883" y2="71.4883"/><text fill="#000000" font-family="sans-serif" font-size="14" font-weight="700" lengthAdjust="spacing" textLength="60.3135" x="34" y="64.5352">example</text></g><!--cluster order--><g class="cluster" data-qualified-name="com.example.order" data-source-line="2" id="ent0001"><path d="M56.5,92 L96.6494,92 A3.75,3.75 0 0 1 99.1494,94.5 L106.1494,114.4883 L393.5,114.4883 A2.5,2.5 0 0 1 396,116.9883 L396,552.89 A2.5,2.5 0 0 1 393.5,555.39 L56.5,555.39 A2.5,2.5 0 0 1 54,552.89 L54,94.5 A2.5,2.5 0 0 1 56.5,92" fill="none" style="stroke:#000000;stroke-width:1.5;"/><line style="stroke:#000000;stroke-width:1.5;" x1="54" x2="106.1494" y1="114.4883" y2="114.4883"/><text fill="#000000" font-family="sans-serif" font-size="14" font-weight="700" lengthAdjust="spacing" textLength="39.1494" x="58" y="107.5352">order</text></g><!--class T_com_example_order_Order--><g class="entity" data-qualified-name="com.example.order.T_com_example_order_Order" data-source-line="3" id="ent0002"><rect fill="#F1F1F1" height="130.4414" rx="2.5" ry="2.5" style="stroke:#181818;stroke-width:0.5;" width="259.4883" x="82.26" y="408.95"/><ellipse cx="188.282" cy="424.95" fill="#ADD1B2" rx="11" ry="11" style="stroke:#181818;stroke-width:1;"/><path d="M190.7551,431.0931 Q190.1741,431.3919 189.5349,431.5413 Q188.8957,431.6907 188.1902,431.6907 Q185.6833,431.6907 184.3635,430.0389 Q183.0437,428.387 183.0437,425.2659 Q183.0437,422.1365 184.3635,420.4847 Q185.6833,418.8328 188.1902,418.8328 Q188.8957,418.8328 189.5432,418.9822 Q190.1907,419.1316 190.7551,419.4305 L190.7551,422.1531 Q190.1243,421.5721 189.5308,421.3023 Q188.9372,421.0325 188.3064,421.0325 Q186.9617,421.0325 186.2768,422.0992 Q185.592,423.1658 185.592,425.2659 Q185.592,427.3577 186.2768,428.4244 Q186.9617,429.491 188.3064,429.491 Q188.9372,429.491 189.5308,429.2212 Q190.1243,428.9515 190.7551,428.3704 Z " fill="#000000"/><text fill="#000000" font-family="sans-serif" font-size="14" lengthAdjust="spacing" textLength="38.9443" x="208.782" y="430.241">Order</text><line style="stroke:#181818;stroke-width:0.5;" x1="83.26" x2="340.7483" y1="440.95" y2="440.95"/><g data-visibility-modifier="PRIVATE_FIELD"><rect fill="none" height="6" style="stroke:#C82930;stroke-width:1;" width="6" x="90.26" y="451.6941"/></g><text fill="#000000" font-family="sans-serif" font-size="14" lengthAdjust="spacing" textLength="61.6875" x="102.26" y="458.4852">id: String</text><g data-visibility-modifier="PRIVATE_FIELD"><rect fill="none" height="6" style="stroke:#C82930;stroke-width:1;" width="6" x="90.26" y="468.1824"/></g><text fill="#000000" font-family="sans-serif" font-size="14" lengthAdjust="spacing" textLength="114.8916" x="102.26" y="474.9734">total: BigDecimal</text><line style="stroke:#181818;stroke-width:0.5;" x1="83.26" x2="340.7483" y1="481.9266" y2="481.9266"/><g data-visibility-modifier="PUBLIC_METHOD"><ellipse cx="93.26" cy="495.6707" fill="#84BE84" rx="3" ry="3" style="stroke:#038048;stroke-width:1;"/></g><text fill="#000000" font-family="sans-serif" font-size="14" lengthAdjust="spacing" textLength="233.4883" x="102.26" y="499.4617">Order(id: String, total: BigDecimal)</text><g data-visibility-modifier="PUBLIC_METHOD"><ellipse cx="93.26" cy="512.159" fill="#84BE84" rx="3" ry="3" style="stroke:#038048;stroke-width:1;"/></g><text fill="#000000" font-family="sans-serif" font-size="14" lengthAdjust="spacing" textLength="92.5449" x="102.26" y="515.95">getId(): String</text><g data-visibility-modifier="PUBLIC_METHOD"><ellipse cx="93.26" cy="528.6473" fill="#84BE84" rx="3" ry="3" style="stroke:#038048;stroke-width:1;"/></g><text fill="#000000" font-family="sans-serif" font-size="14" lengthAdjust="spacing" textLength="149.3789" x="102.26" y="532.4383">getTotal(): BigDecimal</text></g><!--class T_com_example_order_OrderRepository--><g class="entity" data-qualified-name="com.example.order.T_com_example_order_OrderRepository" data-source-line="10" id="ent0005"><rect fill="#F1F1F1" height="64.4883" rx="2.5" ry="2.5" style="stroke:#181818;stroke-width:0.5;" width="187.0547" x="131.47" y="284.46"/><ellipse cx="166.263" cy="300.46" fill="#B4A7E5" rx="11" ry="11" style="stroke:#181818;stroke-width:1;"/><path d="M162.6907,296.7251 L162.6907,294.5669 L170.0701,294.5669 L170.0701,296.7251 L167.6048,296.7251 L167.6048,304.8018 L170.0701,304.8018 L170.0701,306.96 L162.6907,306.96 L162.6907,304.8018 L165.156,304.8018 L165.156,296.7251 Z " fill="#000000"/><text fill="#000000" font-family="sans-serif" font-size="14" font-style="italic" lengthAdjust="spacing" textLength="111.0703" x="184.6614" y="305.751">OrderRepository</text><line style="stroke:#181818;stroke-width:0.5;" x1="132.47" x2="317.5247" y1="316.46" y2="316.46"/><line style="stroke:#181818;stroke-width:0.5;" x1="132.47" x2="317.5247" y1="324.46" y2="324.46"/><g data-visibility-modifier="PUBLIC_METHOD"><ellipse cx="142.47" cy="338.2041" fill="#84BE84" rx="3" ry="3" style="stroke:#038048;stroke-width:1;"/></g><text fill="#000000" font-family="sans-serif" font-size="14" lengthAdjust="spacing" textLength="161.0547" x="151.47" y="341.9952">save(order: Order): void</text></g><!--class T_com_example_order_OrderService--><g class="entity" data-qualified-name="com.example.order.T_com_example_order_OrderService" data-source-line="13" id="ent0006"><rect fill="#F1F1F1" height="97.4648" rx="2.5" ry="2.5" style="stroke:#181818;stroke-width:0.5;" width="310.3135" x="69.84" y="127"/><ellipse cx="177.6086" cy="143" fill="#ADD1B2" rx="11" ry="11" style="stroke:#181818;stroke-width:1;"/><path d="M180.0817,149.1431 Q179.5006,149.4419 178.8615,149.5913 Q178.2223,149.7407 177.5168,149.7407 Q175.0099,149.7407 173.6901,148.0889 Q172.3703,146.437 172.3703,143.3159 Q172.3703,140.1865 173.6901,138.5347 Q175.0099,136.8828 177.5168,136.8828 Q178.2223,136.8828 178.8698,137.0322 Q179.5172,137.1816 180.0817,137.4805 L180.0817,140.2031 Q179.4508,139.6221 178.8573,139.3523 Q178.2638,139.0825 177.633,139.0825 Q176.2882,139.0825 175.6034,140.1492 Q174.9186,141.2158 174.9186,143.3159 Q174.9186,145.4077 175.6034,146.4744 Q176.2882,147.541 177.633,147.541 Q178.2638,147.541 178.8573,147.2712 Q179.4508,147.0015 180.0817,146.4204 Z " fill="#000000"/><text fill="#000000" font-family="sans-serif" font-size="14" lengthAdjust="spacing" textLength="86.2764" x="198.1086" y="148.291">OrderService</text><line style="stroke:#181818;stroke-width:0.5;" x1="70.84" x2="379.1535" y1="159" y2="159"/><g data-visibility-modifier="PRIVATE_FIELD"><rect fill="none" height="6" style="stroke:#C82930;stroke-width:1;" width="6" x="77.84" y="169.7441"/></g><text fill="#000000" font-family="sans-serif" font-size="14" lengthAdjust="spacing" textLength="188.9316" x="89.84" y="176.5352">repository: OrderRepository</text><line style="stroke:#181818;stroke-width:0.5;" x1="70.84" x2="379.1535" y1="183.4883" y2="183.4883"/><g data-visibility-modifier="PUBLIC_METHOD"><ellipse cx="80.84" cy="197.2324" fill="#84BE84" rx="3" ry="3" style="stroke:#038048;stroke-width:1;"/></g><text fill="#000000" font-family="sans-serif" font-size="14" lengthAdjust="spacing" textLength="284.3135" x="89.84" y="201.0234">OrderService(repository: OrderRepository)</text><g data-visibility-modifier="PUBLIC_METHOD"><ellipse cx="80.84" cy="213.7207" fill="#84BE84" rx="3" ry="3" style="stroke:#038048;stroke-width:1;"/></g><text fill="#000000" font-family="sans-serif" font-size="14" lengthAdjust="spacing" textLength="166.7012" x="89.84" y="217.5117">place(order: Order): void</text></g><!--link T_com_example_order_OrderRepository to T_com_example_order_Order--><g class="link" data-entity-1="ent0005" data-entity-2="ent0002" data-link-type="dependency" data-source-line="20" id="lnk7"><path codeLine="20" d="M222.37,349.17 C220.94,366.29 219.5268,383.1374 217.8068,403.6974" fill="none" id="T_com_example_order_OrderRepository-to-T_com_example_order_Order" style="stroke:#181818;stroke-width:1;stroke-dasharray:7,7;"/><polygon fill="#181818" points="217.39,408.68,222.1264,400.0448,217.8068,403.6974,214.1542,399.3779,217.39,408.68" style="stroke:#181818;stroke-width:1;stroke-linejoin:miter;stroke-miterlimit:10;"/><text fill="#000000" font-family="sans-serif" font-size="13" lengthAdjust="spacing" textLength="8.2202" x="209.5536" y="398.282">1</text></g><!--link T_com_example_order_OrderService to T_com_example_order_OrderRepository--><g class="link" data-entity-1="ent0006" data-entity-2="ent0005" data-link-type="dependency" data-source-line="21" id="lnk8"><path codeLine="21" d="M212.44,224.95 C211.37,244.54 211.2604,261.6714 213.2304,279.1614" fill="none" id="T_com_example_order_OrderService-to-T_com_example_order_OrderRepository" style="stroke:#181818;stroke-width:1;"/><polygon fill="#181818" points="213.79,284.13,216.7575,274.7388,213.2304,279.1614,208.8078,275.6343,213.79,284.13" style="stroke:#181818;stroke-width:1;stroke-linejoin:miter;stroke-miterlimit:10;"/><text fill="#000000" font-family="sans-serif" font-size="13" lengthAdjust="spacing" textLength="8.2202" x="202.8177" y="273.8393">1</text></g><!--link T_com_example_order_OrderService to T_com_example_order_OrderRepository--><g class="link" data-entity-1="ent0006" data-entity-2="ent0005" data-link-type="dependency" data-source-line="23" id="lnk10"><path codeLine="23" d="M237.56,224.95 C238.63,244.54 238.7396,261.6714 236.7696,279.1614" fill="none" id="T_com_example_order_OrderService-to-T_com_example_order_OrderRepository-1" style="stroke:#181818;stroke-width:1;stroke-dasharray:7,7;"/><polygon fill="#181818" points="236.21,284.13,241.1922,275.6343,236.7696,279.1614,233.2425,274.7388,236.21,284.13" style="stroke:#181818;stroke-width:1;stroke-linejoin:miter;stroke-miterlimit:10;"/><text fill="#000000" font-family="sans-serif" font-size="13" lengthAdjust="spacing" textLength="8.2202" x="229.6517" y="273.8393">1</text></g><!--link T_com_example_order_OrderService to T_com_example_order_Order--><g class="link" data-entity-1="ent0006" data-entity-2="ent0002" data-link-type="dependency" data-source-line="22" id="lnk9"><path codeLine="22" d="M158.55,224.7 C140.67,241.39 123.63,261.71 114,284.46 C96.09,326.79 115.7007,368.6408 143.7407,404.5108" fill="none" id="T_com_example_order_OrderService-to-T_com_example_order_Order" style="stroke:#181818;stroke-width:1;stroke-dasharray:7,7;"/><polygon fill="#181818" points="146.82,408.45,144.4286,398.8959,143.7407,404.5108,138.1258,403.8228,146.82,408.45" style="stroke:#181818;stroke-width:1;stroke-linejoin:miter;stroke-miterlimit:10;"/><text fill="#000000" font-family="sans-serif" font-size="13" lengthAdjust="spacing" textLength="8.2202" x="131.265" y="398.0268">1</text></g><?plantuml-src hP11YuCm48Nl_HL3Jaghi5SFUrZsqbEXzYv3d9NGs4WIfANqlpV6k2fBjOSzX939Ds_UcmRv6Ii2nbMTqXNhHbAgT4cQmNq3m2KQ0-pGLz30gN1a4SZ2auN_zJX08ieCSgl5fUhVLbcK6No9wfkug57wyjRtH2EyWpzWt9CLsNqPnJFLhdZg-Au-atwu8owMz0zo2iQFr2WZhDAtvGWZ5y9i3ROKUI83ZxXnhH9b63JTJaww5PoM9mHes9N-7HZaHmUJBOMcQ84Egsga2_tIxsFZhdV2f-adi0_scbtI6I8coOh8BEkgtBzuMXMPU7e2?></g></svg>