<svg xmlns="http://www.w3.org/2000/svg" xmlns:xlink="http://www.w3.org/1999/xlink" contentStyleType="text/css" data-diagram-type="CLASS" height="808px" preserveAspectRatio="none" style="width:985px;height:808px;background:#FFFFFF;" version="1.1" viewBox="0 0 985 808" width="985px" zoomAndPan="magnify"><?plantuml 1.2026.6?><defs/><g><!--cluster com--><g class="cluster" data-qualified-name="com" data-source-line="3" id="ent0003"><path d="M8.5,6 L39.4688,6 A3.75,3.75 0 0 1 41.9688,8.5 L48.9688,28.4883 L967.5,28.4883 A2.5,2.5 0 0 1 970,30.9883 L970,791.34 A2.5,2.5 0 0 1 967.5,793.84 L8.5,793.84 A2.5,2.5 0 0 1 6,791.34 L6,8.5 A2.5,2.5 0 0 1 8.5,6" fill="none" style="stroke:#000000;stroke-width:1.5;"/><line style="stroke:#000000;stroke-width:1.5;" x1="6" x2="48.9688" y1="28.4883" y2="28.4883"/><text fill="#000000" font-family="sans-serif" font-size="14" font-weight="700" lengthAdjust="spacing" textLength="29.9688" x="10" y="21.5352">com</text></g><!--cluster example--><g class="cluster" data-qualified-name="com.example" data-source-line="3" id="ent0004"><path d="M32.5,49 L93.8135,49 A3.75,3.75 0 0 1 96.3135,51.5 L103.3135,71.4883 L943.5,71.4883 A2.5,2.5 0 0 1 946,73.9883 L946,767.34 A2.5,2.5 0 0 1 943.5,769.84 L32.5,769.84 A2.5,2.5 0 0 1 30,767.34 L30,51.5 A2.5,2.5 0 0 1 32.5,49" fill="none" style="stroke:#000000;stroke-width:1.5;"/><line style="stroke:#000000;stroke-width:1.5;" x1="30" x2="103.3135" y1="71.4883" y2="71.4883"/><text fill="#000000" font-family="sans-serif" font-size="14" font-weight="700" lengthAdjust="spacing" textLength="60.3135" x="34" y="64.5352">example</text></g><!--cluster order--><g class="cluster" data-qualified-name="com.example.order" data-source-line="2" id="ent0001"><path d="M56.5,92 L96.6494,92 A3.75,3.75 0 0 1 99.1494,94.5 L106.1494,114.4883 L919.5,114.4883 A2.5,2.5 0 0 1 922,116.9883 L922,743.34 A2.5,2.5 0 0 1 919.5,745.84 L56.5,745.84 A2.5,2.5 0 0 1 54,743.34 L54,94.5 A2.5,2.5 0 0 1 56.5,92" fill="none" style="stroke:#000000;stroke-width:1.5;"/><line style="stroke:#000000;stroke-width:1.5;" x1="54" x2="106.1494" y1="114.4883" y2="114.4883"/><text fill="#000000" font-family="sans-serif" font-size="14" font-weight="700" lengthAdjust="spacing" textLength="39.1494" x="58" y="107.5352">order</text></g><!--class T_com_example_order_Order--><g class="entity" data-qualified-name="com.example.order.T_com_example_order_Order" data-source-line="3" id="ent0002"><rect fill="#FFFFE0" height="179.9063" rx="2.5" ry="2.5" style="stroke:#181818;stroke-width:0.5;" width="259.4883" x="340.26" y="441.93"/><ellipse cx="446.282" cy="457.93" fill="#ADD1B2" rx="11" ry="11" style="stroke:#181818;stroke-width:1;"/><path d="M448.7551,464.0731 Q448.1741,464.3719 447.5349,464.5213 Q446.8957,464.6707 446.1902,464.6707 Q443.6833,464.6707 442.3635,463.0189 Q441.0437,461.367 441.0437,458.2459 Q441.0437,455.1165 442.3635,453.4647 Q443.6833,451.8128 446.1902,451.8128 Q446.8957,451.8128 447.5432,451.9622 Q448.1907,452.1116 448.7551,452.4105 L448.7551,455.1331 Q448.1243,454.5521 447.5308,454.2823 Q446.9372,454.0125 446.3064,454.0125 Q444.9617,454.0125 444.2768,455.0792 Q443.592,456.1458 443.592,458.2459 Q443.592,460.3377 444.2768,461.4044 Q444.9617,462.471 446.3064,462.471 Q446.9372,462.471 447.5308,462.2012 Q448.1243,461.9315 448.7551,461.3504 Z " fill="#000000"/><text fill="#000000" font-family="sans-serif" font-size="14" lengthAdjust="spacing" textLength="38.9443" x="466.782" y="463.221">Order</text><line style="stroke:#181818;stroke-width:0.5;" x1="341.26" x2="598.7483" y1="473.93" y2="473.93"/><g data-visibility-modifier="PRIVATE_FIELD"><rect fill="none" height="6" style="stroke:#C82930;stroke-width:1;" width="6" x="348.26" y="484.6741"/></g><text fill="#000000" font-family="sans-serif" font-size="14" lengthAdjust="spacing" textLength="61.6875" x="360.26" y="491.4652">id: String</text><g data-visibility-modifier="PRIVATE_FIELD"><rect fill="none" height="6" style="stroke:#C82930;stroke-width:1;" width="6" x="348.26" y="501.1624"/></g><text fill="#000000" font-family="sans-serif" font-size="14" lengthAdjust="spacing" textLength="114.8916" x="360.26" y="507.9534">total: BigDecimal</text><g data-visibility-modifier="PRIVATE_FIELD"><rect fill="none" height="6" style="stroke:#C82930;stroke-width:1;" width="6" x="348.26" y="517.6507"/></g><text fill="#000000" font-family="sans-serif" font-size="14" lengthAdjust="spacing" textLength="130.5391" x="360.26" y="524.4417">status: OrderStatus</text><line style="stroke:#181818;stroke-width:0.5;" x1="341.26" x2="598.7483" y1="531.3948" y2="531.3948"/><g data-visibility-modifier="PUBLIC_METHOD"><ellipse cx="351.26" cy="545.139" fill="#84BE84" rx="3" ry="3" style="stroke:#038048;stroke-width:1;"/></g><text fill="#000000" font-family="sans-serif" font-size="14" lengthAdjust="spacing" textLength="233.4883" x="360.26" y="548.93">Order(id: String, total: BigDecimal)</text><g data-visibility-modifier="PUBLIC_METHOD"><ellipse cx="351.26" cy="561.6273" fill="#84BE84" rx="3" ry="3" style="stroke:#038048;stroke-width:1;"/></g><text fill="#000000" font-family="sans-serif" font-size="14" lengthAdjust="spacing" textLength="92.5449" x="360.26" y="565.4183">getId(): String</text><g data-visibility-modifier="PUBLIC_METHOD"><ellipse cx="351.26" cy="578.1155" fill="#84BE84" rx="3" ry="3" style="stroke:#038048;stroke-width:1;"/></g><text fill="#000000" font-family="sans-serif" font-size="14" lengthAdjust="spacing" textLength="149.3789" x="360.26" y="581.9066">getTotal(): BigDecimal</text><g data-visibility-modifier="PUBLIC_METHOD"><ellipse cx="351.26" cy="594.6038" fill="#84BE84" rx="3" ry="3" style="stroke:#038048;stroke-width:1;"/></g><text fill="#000000" font-family="sans-serif" font-size="14" lengthAdjust="spacing" textLength="161.8135" x="360.26" y="598.3948">getStatus(): OrderStatus</text><g data-visibility-modifier="PUBLIC_METHOD"><ellipse cx="351.26" cy="611.0921" fill="#84BE84" rx="3" ry="3" style="stroke:#038048;stroke-width:1;"/></g><text fill="#000000" font-family="sans-serif" font-size="14" lengthAdjust="spacing" textLength="109.71" x="360.26" y="614.8831">markPaid(): void</text></g><!--class T_com_example_order_OrderRepository--><g class="entity" data-qualified-name="com.example.order.T_com_example_order_OrderRepository" data-source-line="13" id="ent0005"><rect fill="#F08080" height="64.4883" rx="2.5" ry="2.5" style="stroke:#181818;stroke-width:0.5;" width="187.0547" x="70.47" y="309.2"/><ellipse cx="105.263" cy="325.2" fill="#B4A7E5" rx="11" ry="11" style="stroke:#181818;stroke-width:1;"/><path d="M101.6907,321.4651 L101.6907,319.3069 L109.0701,319.3069 L109.0701,321.4651 L106.6048,321.4651 L106.6048,329.5418 L109.0701,329.5418 L109.0701,331.7 L101.6907,331.7 L101.6907,329.5418 L104.156,329.5418 L104.156,321.4651 Z " fill="#000000"/><text fill="#000000" font-family="sans-serif" font-size="14" font-style="italic" lengthAdjust="spacing" textLength="111.0703" x="123.6614" y="330.491">OrderRepository</text><line style="stroke:#181818;stroke-width:0.5;" x1="71.47" x2="256.5247" y1="341.2" y2="341.2"/><line style="stroke:#181818;stroke-width:0.5;" x1="71.47" x2="256.5247" y1="349.2" y2="349.2"/><g data-visibility-modifier="PUBLIC_METHOD"><ellipse cx="81.47" cy="362.9441" fill="#84BE84" rx="3" ry="3" style="stroke:#038048;stroke-width:1;"/></g><text fill="#000000" font-family="sans-serif" font-size="14" lengthAdjust="spacing" textLength="161.0547" x="90.47" y="366.7352">save(order: Order): void</text></g><!--class T_com_example_order_OrderService--><g class="entity" data-qualified-name="com.example.order.T_com_example_order_OrderService" data-source-line="16" id="ent0006"><rect fill="#FFFFE0" height="113.9531" rx="2.5" ry="2.5" style="stroke:#181818;stroke-width:0.5;" width="485.9766" x="323.01" y="127"/><ellipse cx="518.6101" cy="143" fill="#ADD1B2" rx="11" ry="11" style="stroke:#181818;stroke-width:1;"/><path d="M521.0832,149.1431 Q520.5022,149.4419 519.863,149.5913 Q519.2239,149.7407 518.5183,149.7407 Q516.0115,149.7407 514.6916,148.0889 Q513.3718,146.437 513.3718,143.3159 Q513.3718,140.1865 514.6916,138.5347 Q516.0115,136.8828 518.5183,136.8828 Q519.2239,136.8828 519.8713,137.0322 Q520.5188,137.1816 521.0832,137.4805 L521.0832,140.2031 Q520.4524,139.6221 519.8589,139.3523 Q519.2654,139.0825 518.6345,139.0825 Q517.2898,139.0825 516.605,140.1492 Q515.9202,141.2158 515.9202,143.3159 Q515.9202,145.4077 516.605,146.4744 Q517.2898,147.541 518.6345,147.541 Q519.2654,147.541 519.8589,147.2712 Q520.4524,147.0015 521.0832,146.4204 Z " fill="#000000"/><text fill="#000000" font-family="sans-serif" font-size="14" lengthAdjust="spacing" textLength="86.2764" x="539.1101" y="148.291">OrderService</text><line style="stroke:#181818;stroke-width:0.5;" x1="324.01" x2="807.9866" y1="159" y2="159"/><g data-visibility-modifier="PRIVATE_FIELD"><rect fill="none" height="6" style="stroke:#C82930;stroke-width:1;" width="6" x="331.01" y="169.7441"/></g><text fill="#000000" font-family="sans-serif" font-size="14" lengthAdjust="spacing" textLength="117.209" x="343.01" y="176.5352">store: OrderStore</text><g data-visibility-modifier="PRIVATE_FIELD"><rect fill="none" height="6" style="stroke:#C82930;stroke-width:1;" width="6" x="331.01" y="186.2324"/></g><text fill="#000000" font-family="sans-serif" font-size="14" lengthAdjust="spacing" textLength="238.5264" x="343.01" y="193.0234">paymentGateway: PaymentGateway</text><line style="stroke:#181818;stroke-width:0.5;" x1="324.01" x2="807.9866" y1="199.9766" y2="199.9766"/><g data-visibility-modifier="PUBLIC_METHOD"><ellipse cx="334.01" cy="213.7207" fill="#84BE84" rx="3" ry="3" style="stroke:#038048;stroke-width:1;"/></g><text fill="#000000" font-family="sans-serif" font-size="14" lengthAdjust="spacing" textLength="459.9766" x="343.01" y="217.5117">OrderService(store: OrderStore, paymentGateway: PaymentGateway)</text><g data-visibility-modifier="PUBLIC_METHOD"><ellipse cx="334.01" cy="230.209" fill="#84BE84" rx="3" ry="3" style="stroke:#038048;stroke-width:1;"/></g><text fill="#000000" font-family="sans-serif" font-size="14" lengthAdjust="spacing" textLength="187.7148" x="343.01" y="234">place(order: Order): Receipt</text></g><!--class T_com_example_order_OrderStatus--><g class="entity" data-qualified-name="com.example.order.T_com_example_order_OrderStatus" data-source-line="22" id="ent0007"><rect fill="#98FB98" height="48" rx="2.5" ry="2.5" style="stroke:#181818;stroke-width:0.5;" width="112.5137" x="413.74" y="681.84"/><ellipse cx="428.74" cy="697.84" fill="#EB937F" rx="11" ry="11" style="stroke:#181818;stroke-width:1;"/><path d="M432.3543,704.34 L424.6345,704.34 L424.6345,691.9469 L432.3543,691.9469 L432.3543,694.1051 L427.0833,694.1051 L427.0833,696.778 L431.8562,696.778 L431.8562,698.9362 L427.0833,698.9362 L427.0833,702.1818 L432.3543,702.1818 Z " fill="#000000"/><text fill="#000000" font-family="sans-serif" font-size="14" lengthAdjust="spacing" textLength="80.5137" x="442.74" y="703.131">OrderStatus</text><line style="stroke:#181818;stroke-width:0.5;" x1="414.74" x2="525.2537" y1="713.84" y2="713.84"/><line style="stroke:#181818;stroke-width:0.5;" x1="414.74" x2="525.2537" y1="721.84" y2="721.84"/></g><!--class T_com_example_order_OrderStore--><g class="entity" data-qualified-name="com.example.order.T_com_example_order_OrderStore" data-source-line="24" id="ent0008"><rect fill="#98FB98" height="80.9766" rx="2.5" ry="2.5" style="stroke:#181818;stroke-width:0.5;" width="279.7979" x="330.1" y="300.96"/><ellipse cx="428.8246" cy="316.96" fill="#B4A7E5" rx="11" ry="11" style="stroke:#181818;stroke-width:1;"/><path d="M425.2523,313.2251 L425.2523,311.0669 L432.6317,311.0669 L432.6317,313.2251 L430.1664,313.2251 L430.1664,321.3018 L432.6317,321.3018 L432.6317,323.46 L425.2523,323.46 L425.2523,321.3018 L427.7177,321.3018 L427.7177,313.2251 Z " fill="#000000"/><text fill="#000000" font-family="sans-serif" font-size="14" font-style="italic" lengthAdjust="spacing" textLength="73.8486" x="449.3246" y="322.251">OrderStore</text><line style="stroke:#181818;stroke-width:0.5;" x1="331.1" x2="608.8979" y1="332.96" y2="332.96"/><line style="stroke:#181818;stroke-width:0.5;" x1="331.1" x2="608.8979" y1="340.96" y2="340.96"/><g data-visibility-modifier="PUBLIC_METHOD"><ellipse cx="341.1" cy="354.7041" fill="#84BE84" rx="3" ry="3" style="stroke:#038048;stroke-width:1;"/></g><text fill="#000000" font-family="sans-serif" font-size="14" lengthAdjust="spacing" textLength="161.0547" x="350.1" y="358.4952">save(order: Order): void</text><g data-visibility-modifier="PUBLIC_METHOD"><ellipse cx="341.1" cy="371.1924" fill="#84BE84" rx="3" ry="3" style="stroke:#038048;stroke-width:1;"/></g><text fill="#000000" font-family="sans-serif" font-size="14" lengthAdjust="spacing" textLength="253.7979" x="350.1" y="374.9834">findById(id: String): Optional&lt;Order&gt;</text></g><!--class T_com_example_order_PaymentGateway--><g class="entity" data-qualified-name="com.example.order.T_com_example_order_PaymentGateway" data-source-line="28" id="ent0009"><rect fill="#98FB98" height="64.4883" rx="2.5" ry="2.5" style="stroke:#181818;stroke-width:0.5;" width="224.0029" x="645" y="309.2"/><ellipse cx="695.603" cy="325.2" fill="#B4A7E5" rx="11" ry="11" style="stroke:#181818;stroke-width:1;"/><path d="M692.0308,321.4651 L692.0308,319.3069 L699.4102,319.3069 L699.4102,321.4651 L696.9448,321.4651 L696.9448,329.5418 L699.4102,329.5418 L699.4102,331.7 L692.0308,331.7 L692.0308,329.5418 L694.4961,329.5418 L694.4961,321.4651 Z " fill="#000000"/><text fill="#000000" font-family="sans-serif" font-size="14" font-style="italic" lengthAdjust="spacing" textLength="114.2969" x="716.103" y="330.491">PaymentGateway</text><line style="stroke:#181818;stroke-width:0.5;" x1="646" x2="868.0029" y1="341.2" y2="341.2"/><line style="stroke:#181818;stroke-width:0.5;" x1="646" x2="868.0029" y1="349.2" y2="349.2"/><g data-visibility-modifier="PUBLIC_METHOD"><ellipse cx="656" cy="362.9441" fill="#84BE84" rx="3" ry="3" style="stroke:#038048;stroke-width:1;"/></g><text fill="#000000" font-family="sans-serif" font-size="14" lengthAdjust="spacing" textLength="198.0029" x="665" y="366.7352">charge(order: Order): Receipt</text></g><!--class T_com_example_order_Receipt--><g class="entity" data-qualified-name="com.example.order.T_com_example_order_Receipt" data-source-line="31" id="ent0010"><rect fill="#98FB98" height="89.5977" rx="2.5" ry="2.5" style="stroke:#181818;stroke-width:0.5;" width="162.0557" x="709.97" y="487.09"/><ellipse cx="761.8889" cy="507.4005" fill="#ADD1B2" rx="11" ry="11" style="stroke:#181818;stroke-width:1;"/><path d="M764.3621,513.5436 Q763.781,513.8424 763.1419,513.9919 Q762.5027,514.1413 761.7971,514.1413 Q759.2903,514.1413 757.9705,512.4894 Q756.6507,510.8376 756.6507,507.7165 Q756.6507,504.5871 757.9705,502.9352 Q759.2903,501.2834 761.7971,501.2834 Q762.5027,501.2834 763.1502,501.4328 Q763.7976,501.5822 764.3621,501.881 L764.3621,504.6037 Q763.7312,504.0226 763.1377,503.7528 Q762.5442,503.4831 761.9134,503.4831 Q760.5686,503.4831 759.8838,504.5497 Q759.199,505.6164 759.199,507.7165 Q759.199,509.8083 759.8838,510.8749 Q760.5686,511.9416 761.9134,511.9416 Q762.5442,511.9416 763.1377,511.6718 Q763.7312,511.402 764.3621,510.821 Z " fill="#000000"/><text fill="#000000" font-family="sans-serif" font-size="12" font-style="italic" lengthAdjust="spacing" textLength="50.1504" x="782.1726" y="503.6916">&#171;record&#187;</text><text fill="#000000" font-family="sans-serif" font-size="14" lengthAdjust="spacing" textLength="49.7178" x="782.3889" y="519.758">Receipt</text><line style="stroke:#181818;stroke-width:0.5;" x1="710.97" x2="871.0257" y1="527.7111" y2="527.7111"/><g data-visibility-modifier="PRIVATE_FIELD"><rect fill="none" height="6" style="stroke:#C82930;stroke-width:1;" width="6" x="717.97" y="538.4552"/></g><text fill="#000000" font-family="sans-serif" font-size="14" lengthAdjust="spacing" textLength="120.3262" x="729.97" y="545.2463">paymentId: String</text><g data-visibility-modifier="PRIVATE_FIELD"><rect fill="none" height="6" style="stroke:#C82930;stroke-width:1;" width="6" x="717.97" y="554.9435"/></g><text fill="#000000" font-family="sans-serif" font-size="14" lengthAdjust="spacing" textLength="136.0557" x="729.97" y="561.7345">amount: BigDecimal</text><line style="stroke:#181818;stroke-width:0.5;" x1="710.97" x2="871.0257" y1="568.6877" y2="568.6877"/></g><!--link T_com_example_order_Order to T_com_example_order_OrderStatus--><g class="link" data-entity-1="ent0002" data-entity-2="ent0007" data-link-type="dependency" data-source-line="37" id="lnk11"><path codeLine="37" d="M456.88,622.14 C457,644.22 457.5069,661.0686 459.9269,676.7386" fill="none" id="T_com_example_order_Order-to-T_com_example_order_OrderStatus" style="stroke:#181818;stroke-width:1;"/><polygon fill="#181818" points="460.69,681.68,463.2695,672.1749,459.9269,676.7386,455.3632,673.3959,460.69,681.68" style="stroke:#181818;stroke-width:1;stroke-linejoin:miter;stroke-miterlimit:10;"/><text fill="#000000" font-family="sans-serif" font-size="13" lengthAdjust="spacing" textLength="8.2202" x="449.3083" y="671.1753">1</text></g><!--link T_com_example_order_Order to T_com_example_order_OrderStatus--><g class="link" data-entity-1="ent0002" data-entity-2="ent0007" data-link-type="dependency" data-source-line="38" id="lnk12"><path codeLine="38" d="M483.12,622.14 C483,644.22 482.4931,661.0686 480.0731,676.7386" fill="none" id="T_com_example_order_Order-to-T_com_example_order_OrderStatus-1" style="stroke:#181818;stroke-width:1;stroke-dasharray:7,7;"/><polygon fill="#181818" points="479.31,681.68,484.6368,673.3959,480.0731,676.7386,476.7305,672.1749,479.31,681.68" style="stroke:#181818;stroke-width:1;stroke-linejoin:miter;stroke-miterlimit:10;"/><text fill="#000000" font-family="sans-serif" font-size="13" lengthAdjust="spacing" textLength="8.2202" x="472.6997" y="671.1753">1</text></g><!--link T_com_example_order_OrderRepository to T_com_example_order_Order--><g class="link" data-entity-1="ent0005" data-entity-2="ent0002" data-link-type="dependency" data-source-line="39" id="lnk13"><path codeLine="39" d="M215.22,373.99 C249.42,395.05 291.7724,421.1283 335.7824,448.2283" fill="none" id="T_com_example_order_OrderRepository-to-T_com_example_order_Order" style="stroke:#181818;stroke-width:1;stroke-dasharray:7,7;"/><polygon fill="#181818" points="340.04,450.85,334.4737,442.7249,335.7824,448.2283,330.2791,449.537,340.04,450.85" style="stroke:#181818;stroke-width:1;stroke-linejoin:miter;stroke-miterlimit:10;"/><text fill="#000000" font-family="sans-serif" font-size="13" lengthAdjust="spacing" textLength="8.2202" x="323.8833" y="443.0328">1</text></g><!--link T_com_example_order_OrderService to T_com_example_order_OrderStore--><g class="link" data-entity-1="ent0006" data-entity-2="ent0008" data-link-type="dependency" data-source-line="40" id="lnk14"><path codeLine="40" d="M518.68,241.11 C505.68,260.76 494.9977,278.0055 485.3877,296.0755" fill="none" id="T_com_example_order_OrderService-to-T_com_example_order_OrderStore" style="stroke:#181818;stroke-width:1;"/><polygon fill="#181818" points="483.04,300.49,490.7976,294.422,485.3877,296.0755,483.7343,290.6656,483.04,300.49" style="stroke:#181818;stroke-width:1;stroke-linejoin:miter;stroke-miterlimit:10;"/><text fill="#000000" font-family="sans-serif" font-size="13" lengthAdjust="spacing" textLength="8.2202" x="476.4985" y="290.3601">1</text></g><!--link T_com_example_order_OrderService to T_com_example_order_OrderStore--><g class="link" data-entity-1="ent0006" data-entity-2="ent0008" data-link-type="dependency" data-source-line="43" id="lnk17"><path codeLine="43" d="M544.01,241.11 C532.73,260.76 521.8851,278.3293 509.1851,296.3993" fill="none" id="T_com_example_order_OrderService-to-T_com_example_order_OrderStore-1" style="stroke:#181818;stroke-width:1;stroke-dasharray:7,7;"/><polygon fill="#181818" points="506.31,300.49,514.7577,295.4267,509.1851,296.3993,508.2125,290.8266,506.31,300.49" style="stroke:#181818;stroke-width:1;stroke-linejoin:miter;stroke-miterlimit:10;"/><text fill="#000000" font-family="sans-serif" font-size="13" lengthAdjust="spacing" textLength="8.2202" x="503.4771" y="290.3601">1</text></g><!--link T_com_example_order_OrderService to T_com_example_order_PaymentGateway--><g class="link" data-entity-1="ent0006" data-entity-2="ent0009" data-link-type="dependency" data-source-line="41" id="lnk15"><path codeLine="41" d="M622.55,241.33 C649.54,264.09 677.3886,286.5353 703.4486,305.9253" fill="none" id="T_com_example_order_OrderService-to-T_com_example_order_PaymentGateway" style="stroke:#181818;stroke-width:1;"/><polygon fill="#181818" points="707.46,308.91,702.6272,300.3284,703.4486,305.9253,697.8517,306.7467,707.46,308.91" style="stroke:#181818;stroke-width:1;stroke-linejoin:miter;stroke-miterlimit:10;"/><text fill="#000000" font-family="sans-serif" font-size="13" lengthAdjust="spacing" textLength="8.2202" x="688.4398" y="298.2533">1</text></g><!--link T_com_example_order_OrderService to T_com_example_order_PaymentGateway--><g class="link" data-entity-1="ent0006" data-entity-2="ent0009" data-link-type="dependency" data-source-line="44" id="lnk18"><path codeLine="44" d="M647.9,241.33 C676.85,264.09 703.7392,286.1799 725.3392,305.5699" fill="none" id="T_com_example_order_OrderService-to-T_com_example_order_PaymentGateway-1" style="stroke:#181818;stroke-width:1;stroke-dasharray:7,7;"/><polygon fill="#181818" points="729.06,308.91,725.0347,299.9213,725.3392,305.5699,719.6906,305.8745,729.06,308.91" style="stroke:#181818;stroke-width:1;stroke-linejoin:miter;stroke-miterlimit:10;"/><text fill="#000000" font-family="sans-serif" font-size="13" lengthAdjust="spacing" textLength="8.2202" x="714.4948" y="298.2533">1</text></g><!--link T_com_example_order_OrderService to T_com_example_order_Order--><g class="link" data-entity-1="ent0006" data-entity-2="ent0002" data-link-type="dependency" data-source-line="42" id="lnk16"><path codeLine="42" d="M376.64,241.35 C351.43,256.74 328.85,276.25 313,300.96 C282.85,347.94 308.381,395.7488 349.311,437.9988" fill="none" id="T_com_example_order_OrderService-to-T_com_example_order_Order" style="stroke:#181818;stroke-width:1;stroke-dasharray:7,7;"/><polygon fill="#181818" points="352.79,441.59,349.4008,432.3427,349.311,437.9988,343.6549,437.9091,352.79,441.59" style="stroke:#181818;stroke-width:1;stroke-linejoin:miter;stroke-miterlimit:10;"/><text fill="#000000" font-family="sans-serif" font-size="13" lengthAdjust="spacing" textLength="8.2202" x="334.7611" y="431.0727">1</text></g><!--link T_com_example_order_OrderService to T_com_example_order_Receipt--><g class="link" data-entity-1="ent0006" data-entity-2="ent0010" data-link-type="dependency" data-source-line="45" id="lnk19"><path codeLine="45" d="M809.21,235.11 C839.74,251.31 867.17,272.71 887,300.96 C928.13,359.55 879.2349,434.7018 837.2049,483.1918" fill="none" id="T_com_example_order_OrderService-to-T_com_example_order_Receipt" style="stroke:#181818;stroke-width:1;stroke-dasharray:7,7;"/><polygon fill="#181818" points="833.93,486.97,842.8474,482.7891,837.2049,483.1918,836.8022,477.5493,833.93,486.97" style="stroke:#181818;stroke-width:1;stroke-linejoin:miter;stroke-miterlimit:10;"/><text fill="#000000" font-family="sans-serif" font-size="13" lengthAdjust="spacing" textLength="8.2202" x="832.1524" y="476.2089">1</text></g><!--link T_com_example_order_OrderStore to T_com_example_order_Order--><g class="link" data-entity-1="ent0008" data-entity-2="ent0002" data-link-type="dependency" data-source-line="46" id="lnk20"><path codeLine="46" d="M459.04,382.41 C457.47,399.8 456.7163,415.9401 456.8563,436.7401" fill="none" id="T_com_example_order_OrderStore-to-T_com_example_order_Order" style="stroke:#181818;stroke-width:1;stroke-dasharray:7,7;"/><polygon fill="#181818" points="456.89,441.74,460.8293,432.7133,456.8563,436.7401,452.8295,432.7671,456.89,441.74" style="stroke:#181818;stroke-width:1;stroke-linejoin:miter;stroke-miterlimit:10;"/><text fill="#000000" font-family="sans-serif" font-size="13" lengthAdjust="spacing" textLength="24.667" x="430.8379" y="431.2351">0..1</text></g><!--link T_com_example_order_OrderStore to T_com_example_order_Order--><g class="link" data-entity-1="ent0008" data-entity-2="ent0002" data-link-type="dependency" data-source-line="47" id="lnk21"><path codeLine="47" d="M480.96,382.41 C482.53,399.8 483.2837,415.9401 483.1437,436.7401" fill="none" id="T_com_example_order_OrderStore-to-T_com_example_order_Order-1" style="stroke:#181818;stroke-width:1;stroke-dasharray:7,7;"/><polygon fill="#181818" points="483.11,441.74,487.1705,432.7671,483.1437,436.7401,479.1707,432.7133,483.11,441.74" style="stroke:#181818;stroke-width:1;stroke-linejoin:miter;stroke-miterlimit:10;"/><text fill="#000000" font-family="sans-serif" font-size="13" lengthAdjust="spacing" textLength="8.2202" x="475.8732" y="431.2351">1</text></g><!--link T_com_example_order_PaymentGateway to T_com_example_order_Order--><g class="link" data-entity-1="ent0009" data-entity-2="ent0002" data-link-type="dependency" data-source-line="48" id="lnk22"><path codeLine="48" d="M708.96,373.99 C679.04,393.63 643.1697,417.1859 604.4197,442.6259" fill="none" id="T_com_example_order_PaymentGateway-to-T_com_example_order_Order" style="stroke:#181818;stroke-width:1;stroke-dasharray:7,7;"/><polygon fill="#181818" points="600.24,445.37,609.9588,443.7745,604.4197,442.6259,605.5683,437.0869,600.24,445.37" style="stroke:#181818;stroke-width:1;stroke-linejoin:miter;stroke-miterlimit:10;"/><text fill="#000000" font-family="sans-serif" font-size="13" lengthAdjust="spacing" textLength="8.2202" x="607.587" y="437.8055">1</text></g><!--link T_com_example_order_PaymentGateway to T_com_example_order_Receipt--><g class="link" data-entity-1="ent0009" data-entity-2="ent0010" data-link-type="dependency" data-source-line="49" id="lnk23"><path codeLine="49" d="M762.69,373.99 C768.27,404.89 775.9328,447.3493 782.1728,481.9593" fill="none" id="T_com_example_order_PaymentGateway-to-T_com_example_order_Receipt" style="stroke:#181818;stroke-width:1;stroke-dasharray:7,7;"/><polygon fill="#181818" points="783.06,486.88,785.3996,477.3131,782.1728,481.9593,777.5266,478.7325,783.06,486.88" style="stroke:#181818;stroke-width:1;stroke-linejoin:miter;stroke-miterlimit:10;"/><text fill="#000000" font-family="sans-serif" font-size="13" lengthAdjust="spacing" textLength="8.2202" x="773.2489" y="476.4317">1</text></g><?plantuml-src lLJ1Re904Btx5HEyO5JINetnq3HfFDNKtiracTAD2qkMrPOq_dkNPIq22iOsFHXbvl5ctfiPKsHRZ0Wy9kE0FZ5E1GLIXQGy-1e0C85P1jvp6S4CNZS6kN78ZKLkR1Q6WaVlEYSXv8Tz5s3AmncijU99L3vhgL7Cu857ZyHuZA8CPnhrBfk19LhR1viOsu1ViKoWnJ0gaH7fPUYFQkMAu6k1B-ADcaMkh5GaMuLZLDiLSikubpmqqOFvy4IJUaD6pf8NIcN6jLHvjpaLpjd4f4BXN1fdk2VVebqdzQAdCrYJsdD6tTKSwEn4CjC4_GWslyjmYdbCYNv2JH-Ops1LUpuPXkFsMpmJwEPmSqg5SQyfzeKOyLGxlPJiugDSEv8UjHO3mnG5HOeeiLBFJSlssKTc84skxX6Px1jFmeVSx5-rgSLIfPhB1CNSlh1eDrKtw69ZTTYPvjWxggZ7LBT4BdYnbil3VAx8x6YuMBJh7PTbsJXkZEKkqOrBEmmE0_Dr-MzZEbs0T-_rpRUJ8mX-pN5oeRriNJp7sxj2Ldbyls9gdMalsv-8kyBlAyLrCVsjkEeSUexVajm5mSqcLImtK3IE_HzeZiPy0m00?></g></svg>